<mxfile host="Electron" modified="2024-09-14T20:15:10.264Z" agent="Mozilla/5.0 (Windows NT 10.0; Win64; x64) AppleWebKit/537.36 (KHTML, like Gecko) draw.io/22.1.16 Chrome/120.0.6099.109 Electron/28.1.0 Safari/537.36" etag="8PO_3z1I_yK_1Z39oFDg" version="22.1.16" type="device">
  <diagram name="Page-1" id="-H_mtQnk-PTXWXPvYvuk">
    <mxGraphModel dx="3816" dy="2627" grid="1" gridSize="10" guides="1" tooltips="1" connect="1" arrows="1" fold="1" page="1" pageScale="1" pageWidth="1169" pageHeight="827" math="0" shadow="0">
      <root>
        <mxCell id="0" />
        <mxCell id="1" parent="0" />
        <mxCell id="xjxATC7eD6JjGwYjVx3A-135" value="" style="rounded=1;whiteSpace=wrap;html=1;fontColor=none;noLabel=1;labelBackgroundColor=#fffb85;textOpacity=50;fillStyle=solid;gradientColor=none;gradientDirection=north;fillColor=#eef099;shadow=0;glass=0;opacity=45;" parent="1" vertex="1">
          <mxGeometry x="-100" y="670" width="500" height="520" as="geometry" />
        </mxCell>
        <mxCell id="xjxATC7eD6JjGwYjVx3A-131" value="" style="rounded=1;whiteSpace=wrap;html=1;fontColor=none;noLabel=1;labelBackgroundColor=#fffb85;textOpacity=50;fillStyle=solid;gradientColor=none;gradientDirection=north;fillColor=#eef099;shadow=0;glass=0;opacity=25;" parent="1" vertex="1">
          <mxGeometry x="602" y="107" width="400" height="370" as="geometry" />
        </mxCell>
        <mxCell id="xjxATC7eD6JjGwYjVx3A-133" value="" style="rounded=1;whiteSpace=wrap;html=1;fontColor=none;noLabel=1;labelBackgroundColor=#fffb85;textOpacity=50;fillStyle=solid;gradientColor=none;gradientDirection=north;fillColor=#eef099;shadow=0;glass=0;opacity=25;" parent="1" vertex="1">
          <mxGeometry x="-30" y="390" width="580" height="510" as="geometry" />
        </mxCell>
        <mxCell id="so9MObPZlSBn5EpZIMos-1" style="edgeStyle=orthogonalEdgeStyle;rounded=0;orthogonalLoop=1;jettySize=auto;html=1;startArrow=classic;startFill=1;" parent="1" source="zA23MoTUsTF4_91t8viU-3" target="xjxATC7eD6JjGwYjVx3A-131" edge="1">
          <mxGeometry relative="1" as="geometry" />
        </mxCell>
        <mxCell id="zA23MoTUsTF4_91t8viU-3" value="pymongo-api" style="rounded=1;whiteSpace=wrap;html=1;" parent="1" vertex="1">
          <mxGeometry x="130" y="202" width="120" height="60" as="geometry" />
        </mxCell>
        <mxCell id="zA23MoTUsTF4_91t8viU-4" style="edgeStyle=orthogonalEdgeStyle;rounded=0;orthogonalLoop=1;jettySize=auto;html=1;exitX=1;exitY=0.5;exitDx=0;exitDy=0;startArrow=classic;startFill=1;" parent="1" source="zA23MoTUsTF4_91t8viU-3" target="xjxATC7eD6JjGwYjVx3A-26" edge="1">
          <mxGeometry relative="1" as="geometry">
            <mxPoint x="560" y="320" as="targetPoint" />
          </mxGeometry>
        </mxCell>
        <mxCell id="so9MObPZlSBn5EpZIMos-3" value="2) Запрос к БД" style="edgeLabel;html=1;align=center;verticalAlign=middle;resizable=0;points=[];" parent="zA23MoTUsTF4_91t8viU-4" vertex="1" connectable="0">
          <mxGeometry x="-0.2448" relative="1" as="geometry">
            <mxPoint as="offset" />
          </mxGeometry>
        </mxCell>
        <mxCell id="xjxATC7eD6JjGwYjVx3A-29" value="" style="edgeStyle=orthogonalEdgeStyle;rounded=0;orthogonalLoop=1;jettySize=auto;html=1;" parent="1" source="xjxATC7eD6JjGwYjVx3A-26" target="xjxATC7eD6JjGwYjVx3A-28" edge="1">
          <mxGeometry relative="1" as="geometry" />
        </mxCell>
        <mxCell id="xjxATC7eD6JjGwYjVx3A-31" value="" style="edgeStyle=orthogonalEdgeStyle;rounded=0;orthogonalLoop=1;jettySize=auto;html=1;" parent="1" source="xjxATC7eD6JjGwYjVx3A-26" target="xjxATC7eD6JjGwYjVx3A-30" edge="1">
          <mxGeometry relative="1" as="geometry" />
        </mxCell>
        <mxCell id="xjxATC7eD6JjGwYjVx3A-33" value="" style="edgeStyle=orthogonalEdgeStyle;rounded=0;orthogonalLoop=1;jettySize=auto;html=1;entryX=0;entryY=0.5;entryDx=0;entryDy=0;" parent="1" source="xjxATC7eD6JjGwYjVx3A-26" target="xjxATC7eD6JjGwYjVx3A-32" edge="1">
          <mxGeometry relative="1" as="geometry" />
        </mxCell>
        <mxCell id="xjxATC7eD6JjGwYjVx3A-26" value="&lt;b&gt;Роутер&lt;/b&gt;" style="rounded=1;whiteSpace=wrap;html=1;fillColor=#b1ddf0;strokeColor=#10739e;" parent="1" vertex="1">
          <mxGeometry x="210" y="520" width="120" height="60" as="geometry" />
        </mxCell>
        <mxCell id="xjxATC7eD6JjGwYjVx3A-28" value="Шард1" style="rounded=1;whiteSpace=wrap;html=1;fillColor=#b1ddf0;strokeColor=#10739e;" parent="1" vertex="1">
          <mxGeometry x="70" y="640" width="120" height="30" as="geometry" />
        </mxCell>
        <mxCell id="xjxATC7eD6JjGwYjVx3A-30" value="Шард2" style="rounded=1;whiteSpace=wrap;html=1;fillColor=#b1ddf0;strokeColor=#10739e;" parent="1" vertex="1">
          <mxGeometry x="210" y="640" width="120" height="30" as="geometry" />
        </mxCell>
        <mxCell id="xjxATC7eD6JjGwYjVx3A-32" value="&lt;b&gt;Конфигурационный сервер&lt;/b&gt;" style="rounded=1;whiteSpace=wrap;html=1;fillColor=#fad7ac;strokeColor=#b46504;" parent="1" vertex="1">
          <mxGeometry x="400" y="520" width="120" height="60" as="geometry" />
        </mxCell>
        <mxCell id="xjxATC7eD6JjGwYjVx3A-41" value="Replicaset" style="text;html=1;strokeColor=none;fillColor=none;align=center;verticalAlign=middle;whiteSpace=wrap;rounded=0;" parent="1" vertex="1">
          <mxGeometry x="10" y="610" width="60" height="30" as="geometry" />
        </mxCell>
        <mxCell id="xjxATC7eD6JjGwYjVx3A-99" value="Шардирование&amp;nbsp;&lt;br&gt;MongoDB" style="text;strokeColor=none;fillColor=none;html=1;fontSize=24;fontStyle=1;verticalAlign=middle;align=center;" parent="1" vertex="1">
          <mxGeometry x="25" y="419" width="100" height="40" as="geometry" />
        </mxCell>
        <mxCell id="xjxATC7eD6JjGwYjVx3A-102" value="" style="shape=cylinder3;whiteSpace=wrap;html=1;boundedLbl=1;backgroundOutline=1;size=15;shadow=1;fillStyle=hatch;movable=1;resizable=1;rotatable=1;deletable=1;editable=1;locked=0;connectable=1;fillColor=#99FFFF;" parent="1" vertex="1">
          <mxGeometry x="45" y="710" width="60" height="40" as="geometry" />
        </mxCell>
        <mxCell id="xjxATC7eD6JjGwYjVx3A-104" value="" style="group" parent="1" vertex="1" connectable="0">
          <mxGeometry x="-20" y="800" width="80" height="60" as="geometry" />
        </mxCell>
        <mxCell id="xjxATC7eD6JjGwYjVx3A-105" value="" style="shape=cylinder3;whiteSpace=wrap;html=1;boundedLbl=1;backgroundOutline=1;size=15;fillStyle=solid;shadow=1;" parent="xjxATC7eD6JjGwYjVx3A-104" vertex="1">
          <mxGeometry y="20" width="60" height="40" as="geometry" />
        </mxCell>
        <mxCell id="xjxATC7eD6JjGwYjVx3A-106" value="" style="shape=cylinder3;whiteSpace=wrap;html=1;boundedLbl=1;backgroundOutline=1;size=15;fillStyle=solid;shadow=1;" parent="xjxATC7eD6JjGwYjVx3A-104" vertex="1">
          <mxGeometry width="60" height="40" as="geometry" />
        </mxCell>
        <mxCell id="xjxATC7eD6JjGwYjVx3A-107" value="S" style="text;strokeColor=none;fillColor=none;html=1;fontSize=24;fontStyle=1;verticalAlign=middle;align=center;" parent="xjxATC7eD6JjGwYjVx3A-104" vertex="1">
          <mxGeometry x="-20" y="-20" width="100" height="40" as="geometry" />
        </mxCell>
        <mxCell id="xjxATC7eD6JjGwYjVx3A-108" value="" style="shape=cylinder3;whiteSpace=wrap;html=1;boundedLbl=1;backgroundOutline=1;size=15;fillStyle=solid;shadow=1;" parent="1" vertex="1">
          <mxGeometry x="-20" y="930" width="60" height="40" as="geometry" />
        </mxCell>
        <mxCell id="d8I7f4nJBKEhvR8xaNe3-2" style="edgeStyle=orthogonalEdgeStyle;rounded=0;orthogonalLoop=1;jettySize=auto;html=1;startArrow=classic;startFill=1;strokeColor=#64ff00;" parent="1" source="xjxATC7eD6JjGwYjVx3A-109" target="xjxATC7eD6JjGwYjVx3A-119" edge="1">
          <mxGeometry relative="1" as="geometry" />
        </mxCell>
        <mxCell id="d8I7f4nJBKEhvR8xaNe3-4" value="heartbeat" style="edgeLabel;html=1;align=center;verticalAlign=middle;resizable=0;points=[];" parent="d8I7f4nJBKEhvR8xaNe3-2" vertex="1" connectable="0">
          <mxGeometry x="0.0267" y="2" relative="1" as="geometry">
            <mxPoint as="offset" />
          </mxGeometry>
        </mxCell>
        <mxCell id="xjxATC7eD6JjGwYjVx3A-109" value="" style="shape=cylinder3;whiteSpace=wrap;html=1;boundedLbl=1;backgroundOutline=1;size=15;fillStyle=solid;shadow=1;" parent="1" vertex="1">
          <mxGeometry x="-20" y="910" width="60" height="40" as="geometry" />
        </mxCell>
        <mxCell id="xjxATC7eD6JjGwYjVx3A-110" style="edgeStyle=orthogonalEdgeStyle;rounded=0;orthogonalLoop=1;jettySize=auto;html=1;exitX=0.855;exitY=1;exitDx=0;exitDy=-4.35;exitPerimeter=0;entryX=0.5;entryY=1;entryDx=0;entryDy=0;entryPerimeter=0;endArrow=classic;endFill=1;startArrow=classic;startFill=1;curved=1;" parent="1" source="xjxATC7eD6JjGwYjVx3A-106" target="xjxATC7eD6JjGwYjVx3A-102" edge="1">
          <mxGeometry relative="1" as="geometry" />
        </mxCell>
        <mxCell id="xjxATC7eD6JjGwYjVx3A-111" style="edgeStyle=orthogonalEdgeStyle;rounded=0;orthogonalLoop=1;jettySize=auto;html=1;curved=1;startArrow=classic;startFill=1;" parent="1" source="xjxATC7eD6JjGwYjVx3A-108" target="xjxATC7eD6JjGwYjVx3A-102" edge="1">
          <mxGeometry relative="1" as="geometry" />
        </mxCell>
        <mxCell id="xjxATC7eD6JjGwYjVx3A-112" style="edgeStyle=orthogonalEdgeStyle;rounded=0;orthogonalLoop=1;jettySize=auto;html=1;fillColor=#0050ef;strokeColor=#001DBC;entryX=0;entryY=0;entryDx=0;entryDy=15;entryPerimeter=0;" parent="1" source="xjxATC7eD6JjGwYjVx3A-102" target="xjxATC7eD6JjGwYjVx3A-108" edge="1">
          <mxGeometry relative="1" as="geometry">
            <mxPoint x="220" y="780" as="targetPoint" />
          </mxGeometry>
        </mxCell>
        <mxCell id="xjxATC7eD6JjGwYjVx3A-114" style="edgeStyle=orthogonalEdgeStyle;rounded=0;orthogonalLoop=1;jettySize=auto;html=1;fillColor=#0050ef;strokeColor=#001DBC;entryX=0;entryY=0;entryDx=0;entryDy=15;entryPerimeter=0;" parent="1" source="xjxATC7eD6JjGwYjVx3A-102" target="xjxATC7eD6JjGwYjVx3A-105" edge="1">
          <mxGeometry relative="1" as="geometry">
            <Array as="points">
              <mxPoint x="-40" y="730" />
              <mxPoint x="-40" y="835" />
            </Array>
          </mxGeometry>
        </mxCell>
        <mxCell id="xjxATC7eD6JjGwYjVx3A-115" value="репликация" style="edgeLabel;html=1;align=center;verticalAlign=middle;resizable=0;points=[];" parent="xjxATC7eD6JjGwYjVx3A-114" vertex="1" connectable="0">
          <mxGeometry x="-0.1744" y="-1" relative="1" as="geometry">
            <mxPoint as="offset" />
          </mxGeometry>
        </mxCell>
        <mxCell id="xjxATC7eD6JjGwYjVx3A-118" value="" style="shape=cylinder3;whiteSpace=wrap;html=1;boundedLbl=1;backgroundOutline=1;size=15;fillStyle=solid;shadow=1;" parent="1" vertex="1">
          <mxGeometry x="-20" y="1030" width="60" height="40" as="geometry" />
        </mxCell>
        <mxCell id="xjxATC7eD6JjGwYjVx3A-124" style="edgeStyle=orthogonalEdgeStyle;rounded=0;orthogonalLoop=1;jettySize=auto;html=1;curved=1;entryX=0.5;entryY=1;entryDx=0;entryDy=0;entryPerimeter=0;startArrow=classic;startFill=1;" parent="1" source="xjxATC7eD6JjGwYjVx3A-119" target="xjxATC7eD6JjGwYjVx3A-102" edge="1">
          <mxGeometry relative="1" as="geometry">
            <mxPoint x="120" y="760.0000000000002" as="targetPoint" />
            <Array as="points">
              <mxPoint x="120" y="1040" />
            </Array>
          </mxGeometry>
        </mxCell>
        <mxCell id="xjxATC7eD6JjGwYjVx3A-119" value="" style="shape=cylinder3;whiteSpace=wrap;html=1;boundedLbl=1;backgroundOutline=1;size=15;fillStyle=solid;shadow=1;" parent="1" vertex="1">
          <mxGeometry x="-20" y="1020" width="60" height="40" as="geometry" />
        </mxCell>
        <mxCell id="xjxATC7eD6JjGwYjVx3A-126" style="edgeStyle=orthogonalEdgeStyle;rounded=0;orthogonalLoop=1;jettySize=auto;html=1;fillColor=#0050ef;strokeColor=#001DBC;exitX=0;exitY=0.5;exitDx=0;exitDy=0;exitPerimeter=0;entryX=0;entryY=1;entryDx=0;entryDy=-15;entryPerimeter=0;" parent="1" source="xjxATC7eD6JjGwYjVx3A-102" target="xjxATC7eD6JjGwYjVx3A-119" edge="1">
          <mxGeometry relative="1" as="geometry">
            <mxPoint x="360" y="780" as="targetPoint" />
            <mxPoint x="189.52" y="720.0000000000002" as="sourcePoint" />
            <Array as="points">
              <mxPoint x="-40" y="730" />
              <mxPoint x="-40" y="1045" />
            </Array>
          </mxGeometry>
        </mxCell>
        <mxCell id="xjxATC7eD6JjGwYjVx3A-11" value="" style="group;fillColor=default;fillStyle=dots;" parent="1" vertex="1" connectable="0">
          <mxGeometry x="672" y="292" width="80" height="60" as="geometry" />
        </mxCell>
        <mxCell id="xjxATC7eD6JjGwYjVx3A-1" value="" style="shape=cylinder3;whiteSpace=wrap;html=1;boundedLbl=1;backgroundOutline=1;size=15;fixDash=0;container=0;dropTarget=0;movable=1;resizable=1;rotatable=1;deletable=1;editable=1;locked=0;connectable=1;" parent="xjxATC7eD6JjGwYjVx3A-11" vertex="1">
          <mxGeometry width="60" height="40" as="geometry" />
        </mxCell>
        <mxCell id="xjxATC7eD6JjGwYjVx3A-2" value="" style="shape=cylinder3;whiteSpace=wrap;html=1;boundedLbl=1;backgroundOutline=1;size=15;shadow=1;fillStyle=hatch;movable=1;resizable=1;rotatable=1;deletable=1;editable=1;locked=0;connectable=1;" parent="xjxATC7eD6JjGwYjVx3A-11" vertex="1">
          <mxGeometry y="20" width="60" height="40" as="geometry" />
        </mxCell>
        <mxCell id="xjxATC7eD6JjGwYjVx3A-59" value="M2" style="text;strokeColor=none;fillColor=none;html=1;fontSize=24;fontStyle=1;verticalAlign=middle;align=center;" parent="xjxATC7eD6JjGwYjVx3A-11" vertex="1">
          <mxGeometry x="-20" y="-20" width="100" height="40" as="geometry" />
        </mxCell>
        <mxCell id="xjxATC7eD6JjGwYjVx3A-12" value="" style="group" parent="1" vertex="1" connectable="0">
          <mxGeometry x="672" y="362" width="80" height="60" as="geometry" />
        </mxCell>
        <mxCell id="xjxATC7eD6JjGwYjVx3A-13" value="" style="shape=cylinder3;whiteSpace=wrap;html=1;boundedLbl=1;backgroundOutline=1;size=15;fixDash=0;container=0;dropTarget=0;movable=1;resizable=1;rotatable=1;deletable=1;editable=1;locked=0;connectable=1;" parent="xjxATC7eD6JjGwYjVx3A-12" vertex="1">
          <mxGeometry width="60" height="40" as="geometry" />
        </mxCell>
        <mxCell id="xjxATC7eD6JjGwYjVx3A-14" value="" style="shape=cylinder3;whiteSpace=wrap;html=1;boundedLbl=1;backgroundOutline=1;size=15;shadow=1;fillStyle=hatch;movable=1;resizable=1;rotatable=1;deletable=1;editable=1;locked=0;connectable=1;" parent="xjxATC7eD6JjGwYjVx3A-12" vertex="1">
          <mxGeometry y="20" width="60" height="40" as="geometry" />
        </mxCell>
        <mxCell id="xjxATC7eD6JjGwYjVx3A-60" value="M3" style="text;strokeColor=none;fillColor=none;html=1;fontSize=24;fontStyle=1;verticalAlign=middle;align=center;" parent="xjxATC7eD6JjGwYjVx3A-12" vertex="1">
          <mxGeometry x="-20" y="-20" width="100" height="40" as="geometry" />
        </mxCell>
        <mxCell id="xjxATC7eD6JjGwYjVx3A-15" value="" style="group;fillColor=default;strokeColor=#0896e7;fontColor=#ffffff;gradientColor=none;fillStyle=auto;" parent="1" vertex="1" connectable="0">
          <mxGeometry x="672" y="212" width="60" height="60" as="geometry" />
        </mxCell>
        <mxCell id="xjxATC7eD6JjGwYjVx3A-16" value="" style="shape=cylinder3;whiteSpace=wrap;html=1;boundedLbl=1;backgroundOutline=1;size=15;fixDash=0;container=0;dropTarget=0;movable=1;resizable=1;rotatable=1;deletable=1;editable=1;locked=0;connectable=1;fillColor=default;" parent="xjxATC7eD6JjGwYjVx3A-15" vertex="1">
          <mxGeometry width="60" height="40" as="geometry" />
        </mxCell>
        <mxCell id="xjxATC7eD6JjGwYjVx3A-17" value="" style="shape=cylinder3;whiteSpace=wrap;html=1;boundedLbl=1;backgroundOutline=1;size=15;shadow=1;fillStyle=hatch;movable=1;resizable=1;rotatable=1;deletable=1;editable=1;locked=0;connectable=1;fillColor=#99FFFF;" parent="xjxATC7eD6JjGwYjVx3A-15" vertex="1">
          <mxGeometry y="20" width="60" height="40" as="geometry" />
        </mxCell>
        <mxCell id="xjxATC7eD6JjGwYjVx3A-23" value="" style="shape=cylinder3;whiteSpace=wrap;html=1;boundedLbl=1;backgroundOutline=1;size=15;fillStyle=solid;shadow=1;" parent="1" vertex="1">
          <mxGeometry x="872" y="232" width="60" height="40" as="geometry" />
        </mxCell>
        <mxCell id="xjxATC7eD6JjGwYjVx3A-24" value="" style="shape=cylinder3;whiteSpace=wrap;html=1;boundedLbl=1;backgroundOutline=1;size=15;fillStyle=solid;shadow=1;" parent="1" vertex="1">
          <mxGeometry x="872" y="212" width="60" height="40" as="geometry" />
        </mxCell>
        <mxCell id="xjxATC7eD6JjGwYjVx3A-43" value="" style="shape=cylinder3;whiteSpace=wrap;html=1;boundedLbl=1;backgroundOutline=1;size=15;fillStyle=solid;shadow=1;" parent="1" vertex="1">
          <mxGeometry x="872" y="314" width="60" height="40" as="geometry" />
        </mxCell>
        <mxCell id="xjxATC7eD6JjGwYjVx3A-44" value="" style="shape=cylinder3;whiteSpace=wrap;html=1;boundedLbl=1;backgroundOutline=1;size=15;fillStyle=solid;shadow=1;" parent="1" vertex="1">
          <mxGeometry x="872" y="294" width="60" height="40" as="geometry" />
        </mxCell>
        <mxCell id="xjxATC7eD6JjGwYjVx3A-46" value="" style="shape=cylinder3;whiteSpace=wrap;html=1;boundedLbl=1;backgroundOutline=1;size=15;fillStyle=solid;shadow=1;" parent="1" vertex="1">
          <mxGeometry x="882" y="387" width="60" height="40" as="geometry" />
        </mxCell>
        <mxCell id="xjxATC7eD6JjGwYjVx3A-47" value="" style="shape=cylinder3;whiteSpace=wrap;html=1;boundedLbl=1;backgroundOutline=1;size=15;fillStyle=solid;shadow=1;" parent="1" vertex="1">
          <mxGeometry x="882" y="367" width="60" height="40" as="geometry" />
        </mxCell>
        <mxCell id="xjxATC7eD6JjGwYjVx3A-48" style="edgeStyle=orthogonalEdgeStyle;rounded=0;orthogonalLoop=1;jettySize=auto;html=1;entryX=0;entryY=0.5;entryDx=0;entryDy=0;entryPerimeter=0;" parent="1" source="xjxATC7eD6JjGwYjVx3A-17" target="xjxATC7eD6JjGwYjVx3A-23" edge="1">
          <mxGeometry relative="1" as="geometry" />
        </mxCell>
        <mxCell id="xjxATC7eD6JjGwYjVx3A-49" style="edgeStyle=orthogonalEdgeStyle;rounded=0;orthogonalLoop=1;jettySize=auto;html=1;entryX=0;entryY=0;entryDx=0;entryDy=17.5;entryPerimeter=0;" parent="1" source="xjxATC7eD6JjGwYjVx3A-2" target="xjxATC7eD6JjGwYjVx3A-43" edge="1">
          <mxGeometry relative="1" as="geometry" />
        </mxCell>
        <mxCell id="xjxATC7eD6JjGwYjVx3A-50" style="edgeStyle=orthogonalEdgeStyle;rounded=0;orthogonalLoop=1;jettySize=auto;html=1;entryX=0;entryY=0;entryDx=0;entryDy=15;entryPerimeter=0;" parent="1" source="xjxATC7eD6JjGwYjVx3A-14" target="xjxATC7eD6JjGwYjVx3A-46" edge="1">
          <mxGeometry relative="1" as="geometry" />
        </mxCell>
        <mxCell id="xjxATC7eD6JjGwYjVx3A-51" style="rounded=0;orthogonalLoop=1;jettySize=auto;html=1;entryX=0.15;entryY=0.6;entryDx=0;entryDy=0;entryPerimeter=0;dashed=1;" parent="1" source="xjxATC7eD6JjGwYjVx3A-2" target="xjxATC7eD6JjGwYjVx3A-23" edge="1">
          <mxGeometry relative="1" as="geometry" />
        </mxCell>
        <mxCell id="xjxATC7eD6JjGwYjVx3A-52" style="rounded=0;orthogonalLoop=1;jettySize=auto;html=1;entryX=0;entryY=0;entryDx=0;entryDy=15;entryPerimeter=0;dashed=1;" parent="1" source="xjxATC7eD6JjGwYjVx3A-2" target="xjxATC7eD6JjGwYjVx3A-46" edge="1">
          <mxGeometry relative="1" as="geometry" />
        </mxCell>
        <mxCell id="xjxATC7eD6JjGwYjVx3A-53" style="rounded=0;orthogonalLoop=1;jettySize=auto;html=1;entryX=0;entryY=0.5;entryDx=0;entryDy=0;entryPerimeter=0;dashed=1;" parent="1" source="xjxATC7eD6JjGwYjVx3A-17" target="xjxATC7eD6JjGwYjVx3A-43" edge="1">
          <mxGeometry relative="1" as="geometry" />
        </mxCell>
        <mxCell id="xjxATC7eD6JjGwYjVx3A-54" style="rounded=0;orthogonalLoop=1;jettySize=auto;html=1;entryX=0.145;entryY=1;entryDx=0;entryDy=-4.35;entryPerimeter=0;dashed=1;" parent="1" source="xjxATC7eD6JjGwYjVx3A-17" target="xjxATC7eD6JjGwYjVx3A-47" edge="1">
          <mxGeometry relative="1" as="geometry" />
        </mxCell>
        <mxCell id="xjxATC7eD6JjGwYjVx3A-55" style="rounded=0;orthogonalLoop=1;jettySize=auto;html=1;entryX=0.145;entryY=1;entryDx=0;entryDy=-4.35;entryPerimeter=0;dashed=1;" parent="1" source="xjxATC7eD6JjGwYjVx3A-14" target="xjxATC7eD6JjGwYjVx3A-24" edge="1">
          <mxGeometry relative="1" as="geometry" />
        </mxCell>
        <mxCell id="xjxATC7eD6JjGwYjVx3A-56" style="rounded=0;orthogonalLoop=1;jettySize=auto;html=1;entryX=0;entryY=0;entryDx=0;entryDy=22.5;entryPerimeter=0;dashed=1;" parent="1" source="xjxATC7eD6JjGwYjVx3A-14" target="xjxATC7eD6JjGwYjVx3A-43" edge="1">
          <mxGeometry relative="1" as="geometry" />
        </mxCell>
        <mxCell id="xjxATC7eD6JjGwYjVx3A-57" value="Кеширование в Redis" style="text;strokeColor=none;fillColor=none;html=1;fontSize=24;fontStyle=1;verticalAlign=middle;align=center;" parent="1" vertex="1">
          <mxGeometry x="692" y="117" width="100" height="40" as="geometry" />
        </mxCell>
        <mxCell id="xjxATC7eD6JjGwYjVx3A-58" value="M1" style="text;strokeColor=none;fillColor=none;html=1;fontSize=24;fontStyle=1;verticalAlign=middle;align=center;" parent="1" vertex="1">
          <mxGeometry x="652" y="192" width="100" height="40" as="geometry" />
        </mxCell>
        <mxCell id="xjxATC7eD6JjGwYjVx3A-130" value="3 вариант схемы" style="text;strokeColor=none;fillColor=none;html=1;fontSize=14;fontStyle=0;verticalAlign=middle;align=center;" parent="1" vertex="1">
          <mxGeometry x="839" y="100" width="100" height="40" as="geometry" />
        </mxCell>
        <mxCell id="xjxATC7eD6JjGwYjVx3A-132" value="1 вариант схемы" style="text;strokeColor=none;fillColor=none;html=1;fontSize=14;fontStyle=0;verticalAlign=middle;align=center;" parent="1" vertex="1">
          <mxGeometry x="107" y="388" width="100" height="40" as="geometry" />
        </mxCell>
        <mxCell id="xjxATC7eD6JjGwYjVx3A-136" value="Репликация&lt;br style=&quot;border-color: var(--border-color);&quot;&gt;&amp;nbsp;MongoDB" style="text;strokeColor=none;fillColor=none;html=1;fontSize=24;fontStyle=1;verticalAlign=middle;align=center;" parent="1" vertex="1">
          <mxGeometry x="190" y="1141" width="100" height="35" as="geometry" />
        </mxCell>
        <mxCell id="xjxATC7eD6JjGwYjVx3A-137" value="2 вариант схемы" style="text;strokeColor=none;fillColor=none;html=1;fontSize=14;fontStyle=0;verticalAlign=middle;align=center;" parent="1" vertex="1">
          <mxGeometry x="280" y="1110" width="100" height="40" as="geometry" />
        </mxCell>
        <mxCell id="d8I7f4nJBKEhvR8xaNe3-1" style="edgeStyle=orthogonalEdgeStyle;rounded=0;orthogonalLoop=1;jettySize=auto;html=1;entryX=0.5;entryY=0;entryDx=0;entryDy=0;entryPerimeter=0;startArrow=classic;startFill=1;strokeColor=#6dee53;" parent="1" source="xjxATC7eD6JjGwYjVx3A-106" target="xjxATC7eD6JjGwYjVx3A-109" edge="1">
          <mxGeometry relative="1" as="geometry" />
        </mxCell>
        <mxCell id="d8I7f4nJBKEhvR8xaNe3-3" value="heartbeat" style="edgeLabel;html=1;align=center;verticalAlign=middle;resizable=0;points=[];" parent="d8I7f4nJBKEhvR8xaNe3-1" vertex="1" connectable="0">
          <mxGeometry x="0.0148" relative="1" as="geometry">
            <mxPoint as="offset" />
          </mxGeometry>
        </mxCell>
        <mxCell id="xjxATC7eD6JjGwYjVx3A-101" value="" style="shape=cylinder3;whiteSpace=wrap;html=1;boundedLbl=1;backgroundOutline=1;size=15;fixDash=0;container=0;dropTarget=0;movable=1;resizable=1;rotatable=1;deletable=1;editable=1;locked=0;connectable=1;fillColor=default;" parent="1" vertex="1">
          <mxGeometry x="45" y="692" width="60" height="40" as="geometry" />
        </mxCell>
        <mxCell id="d8I7f4nJBKEhvR8xaNe3-6" value="M" style="text;strokeColor=none;fillColor=none;html=1;fontSize=24;fontStyle=1;verticalAlign=middle;align=center;" parent="1" vertex="1">
          <mxGeometry x="25" y="680" width="100" height="40" as="geometry" />
        </mxCell>
        <mxCell id="d8I7f4nJBKEhvR8xaNe3-7" value="" style="shape=cylinder3;whiteSpace=wrap;html=1;boundedLbl=1;backgroundOutline=1;size=15;shadow=1;fillStyle=hatch;movable=1;resizable=1;rotatable=1;deletable=1;editable=1;locked=0;connectable=1;fillColor=#99FFFF;" parent="1" vertex="1">
          <mxGeometry x="220" y="698" width="60" height="40" as="geometry" />
        </mxCell>
        <mxCell id="d8I7f4nJBKEhvR8xaNe3-8" value="" style="group" parent="1" vertex="1" connectable="0">
          <mxGeometry x="299.95" y="790" width="80" height="60" as="geometry" />
        </mxCell>
        <mxCell id="d8I7f4nJBKEhvR8xaNe3-9" value="" style="shape=cylinder3;whiteSpace=wrap;html=1;boundedLbl=1;backgroundOutline=1;size=15;fillStyle=solid;shadow=1;" parent="d8I7f4nJBKEhvR8xaNe3-8" vertex="1">
          <mxGeometry y="20" width="60" height="40" as="geometry" />
        </mxCell>
        <mxCell id="d8I7f4nJBKEhvR8xaNe3-10" value="" style="shape=cylinder3;whiteSpace=wrap;html=1;boundedLbl=1;backgroundOutline=1;size=15;fillStyle=solid;shadow=1;" parent="d8I7f4nJBKEhvR8xaNe3-8" vertex="1">
          <mxGeometry width="60" height="40" as="geometry" />
        </mxCell>
        <mxCell id="d8I7f4nJBKEhvR8xaNe3-11" value="S" style="text;strokeColor=none;fillColor=none;html=1;fontSize=24;fontStyle=1;verticalAlign=middle;align=center;" parent="d8I7f4nJBKEhvR8xaNe3-8" vertex="1">
          <mxGeometry x="-20" y="-20" width="100" height="40" as="geometry" />
        </mxCell>
        <mxCell id="d8I7f4nJBKEhvR8xaNe3-12" value="" style="shape=cylinder3;whiteSpace=wrap;html=1;boundedLbl=1;backgroundOutline=1;size=15;fillStyle=solid;shadow=1;" parent="1" vertex="1">
          <mxGeometry x="299.95" y="920" width="60" height="40" as="geometry" />
        </mxCell>
        <mxCell id="d8I7f4nJBKEhvR8xaNe3-13" style="edgeStyle=orthogonalEdgeStyle;rounded=0;orthogonalLoop=1;jettySize=auto;html=1;startArrow=classic;startFill=1;strokeColor=#52ff86;" parent="1" target="d8I7f4nJBKEhvR8xaNe3-23" edge="1">
          <mxGeometry relative="1" as="geometry">
            <mxPoint x="330" y="959" as="sourcePoint" />
          </mxGeometry>
        </mxCell>
        <mxCell id="d8I7f4nJBKEhvR8xaNe3-14" value="heartbeat" style="edgeLabel;html=1;align=center;verticalAlign=middle;resizable=0;points=[];" parent="d8I7f4nJBKEhvR8xaNe3-13" vertex="1" connectable="0">
          <mxGeometry x="0.0267" y="2" relative="1" as="geometry">
            <mxPoint as="offset" />
          </mxGeometry>
        </mxCell>
        <mxCell id="d8I7f4nJBKEhvR8xaNe3-15" value="" style="shape=cylinder3;whiteSpace=wrap;html=1;boundedLbl=1;backgroundOutline=1;size=15;fillStyle=solid;shadow=1;" parent="1" vertex="1">
          <mxGeometry x="299.95" y="900" width="60" height="40" as="geometry" />
        </mxCell>
        <mxCell id="d8I7f4nJBKEhvR8xaNe3-16" style="edgeStyle=orthogonalEdgeStyle;rounded=0;orthogonalLoop=1;jettySize=auto;html=1;exitX=0;exitY=0;exitDx=0;exitDy=17.5;exitPerimeter=0;entryX=0.5;entryY=1;entryDx=0;entryDy=0;entryPerimeter=0;endArrow=classic;endFill=1;startArrow=classic;startFill=1;curved=1;" parent="1" source="d8I7f4nJBKEhvR8xaNe3-9" target="d8I7f4nJBKEhvR8xaNe3-7" edge="1">
          <mxGeometry relative="1" as="geometry" />
        </mxCell>
        <mxCell id="d8I7f4nJBKEhvR8xaNe3-17" style="edgeStyle=orthogonalEdgeStyle;rounded=0;orthogonalLoop=1;jettySize=auto;html=1;curved=1;startArrow=classic;startFill=1;" parent="1" source="d8I7f4nJBKEhvR8xaNe3-12" target="d8I7f4nJBKEhvR8xaNe3-7" edge="1">
          <mxGeometry relative="1" as="geometry" />
        </mxCell>
        <mxCell id="d8I7f4nJBKEhvR8xaNe3-21" value="" style="shape=cylinder3;whiteSpace=wrap;html=1;boundedLbl=1;backgroundOutline=1;size=15;fillStyle=solid;shadow=1;" parent="1" vertex="1">
          <mxGeometry x="299.95" y="1020" width="60" height="40" as="geometry" />
        </mxCell>
        <mxCell id="d8I7f4nJBKEhvR8xaNe3-22" style="edgeStyle=orthogonalEdgeStyle;rounded=0;orthogonalLoop=1;jettySize=auto;html=1;curved=1;entryX=0.5;entryY=1;entryDx=0;entryDy=0;entryPerimeter=0;startArrow=classic;startFill=1;" parent="1" source="d8I7f4nJBKEhvR8xaNe3-23" target="d8I7f4nJBKEhvR8xaNe3-7" edge="1">
          <mxGeometry relative="1" as="geometry">
            <mxPoint x="439.95" y="750.0000000000002" as="targetPoint" />
            <Array as="points">
              <mxPoint x="240" y="1030" />
              <mxPoint x="240" y="738" />
            </Array>
          </mxGeometry>
        </mxCell>
        <mxCell id="d8I7f4nJBKEhvR8xaNe3-23" value="" style="shape=cylinder3;whiteSpace=wrap;html=1;boundedLbl=1;backgroundOutline=1;size=15;fillStyle=solid;shadow=1;" parent="1" vertex="1">
          <mxGeometry x="299.95" y="1010" width="60" height="40" as="geometry" />
        </mxCell>
        <mxCell id="d8I7f4nJBKEhvR8xaNe3-25" style="edgeStyle=orthogonalEdgeStyle;rounded=0;orthogonalLoop=1;jettySize=auto;html=1;entryX=0.5;entryY=0;entryDx=0;entryDy=0;entryPerimeter=0;startArrow=classic;startFill=1;strokeColor=#64ff00;" parent="1" target="d8I7f4nJBKEhvR8xaNe3-15" edge="1">
          <mxGeometry relative="1" as="geometry">
            <mxPoint x="330" y="849" as="sourcePoint" />
          </mxGeometry>
        </mxCell>
        <mxCell id="d8I7f4nJBKEhvR8xaNe3-26" value="heartbeat" style="edgeLabel;html=1;align=center;verticalAlign=middle;resizable=0;points=[];" parent="d8I7f4nJBKEhvR8xaNe3-25" vertex="1" connectable="0">
          <mxGeometry x="0.0148" relative="1" as="geometry">
            <mxPoint as="offset" />
          </mxGeometry>
        </mxCell>
        <mxCell id="d8I7f4nJBKEhvR8xaNe3-27" value="" style="shape=cylinder3;whiteSpace=wrap;html=1;boundedLbl=1;backgroundOutline=1;size=15;fixDash=0;container=0;dropTarget=0;movable=1;resizable=1;rotatable=1;deletable=1;editable=1;locked=0;connectable=1;fillColor=default;" parent="1" vertex="1">
          <mxGeometry x="220" y="680" width="60" height="40" as="geometry" />
        </mxCell>
        <mxCell id="d8I7f4nJBKEhvR8xaNe3-28" value="M" style="text;strokeColor=none;fillColor=none;html=1;fontSize=24;fontStyle=1;verticalAlign=middle;align=center;" parent="1" vertex="1">
          <mxGeometry x="199.99999999999994" y="670" width="100" height="40" as="geometry" />
        </mxCell>
        <mxCell id="d8I7f4nJBKEhvR8xaNe3-32" style="edgeStyle=orthogonalEdgeStyle;rounded=0;orthogonalLoop=1;jettySize=auto;html=1;entryX=1;entryY=0.5;entryDx=0;entryDy=0;entryPerimeter=0;" parent="1" source="d8I7f4nJBKEhvR8xaNe3-7" target="d8I7f4nJBKEhvR8xaNe3-9" edge="1">
          <mxGeometry relative="1" as="geometry" />
        </mxCell>
        <mxCell id="d8I7f4nJBKEhvR8xaNe3-33" style="edgeStyle=orthogonalEdgeStyle;rounded=0;orthogonalLoop=1;jettySize=auto;html=1;entryX=1;entryY=0.5;entryDx=0;entryDy=0;entryPerimeter=0;" parent="1" source="d8I7f4nJBKEhvR8xaNe3-7" target="d8I7f4nJBKEhvR8xaNe3-12" edge="1">
          <mxGeometry relative="1" as="geometry" />
        </mxCell>
        <mxCell id="d8I7f4nJBKEhvR8xaNe3-34" style="edgeStyle=orthogonalEdgeStyle;rounded=0;orthogonalLoop=1;jettySize=auto;html=1;entryX=1;entryY=0.5;entryDx=0;entryDy=0;entryPerimeter=0;strokeColor=#3a30c5;" parent="1" source="d8I7f4nJBKEhvR8xaNe3-7" target="d8I7f4nJBKEhvR8xaNe3-21" edge="1">
          <mxGeometry relative="1" as="geometry" />
        </mxCell>
        <mxCell id="d8I7f4nJBKEhvR8xaNe3-35" value="репликация" style="edgeLabel;html=1;align=center;verticalAlign=middle;resizable=0;points=[];" parent="d8I7f4nJBKEhvR8xaNe3-34" vertex="1" connectable="0">
          <mxGeometry x="-0.8115" y="2" relative="1" as="geometry">
            <mxPoint as="offset" />
          </mxGeometry>
        </mxCell>
        <mxCell id="d8I7f4nJBKEhvR8xaNe3-36" value="S" style="text;strokeColor=none;fillColor=none;html=1;fontSize=24;fontStyle=1;verticalAlign=middle;align=center;" parent="1" vertex="1">
          <mxGeometry x="279.95" y="889" width="100" height="40" as="geometry" />
        </mxCell>
        <mxCell id="d8I7f4nJBKEhvR8xaNe3-37" value="S" style="text;strokeColor=none;fillColor=none;html=1;fontSize=24;fontStyle=1;verticalAlign=middle;align=center;" parent="1" vertex="1">
          <mxGeometry x="279.95" y="999" width="100" height="40" as="geometry" />
        </mxCell>
        <mxCell id="d8I7f4nJBKEhvR8xaNe3-42" value="S" style="text;strokeColor=none;fillColor=none;html=1;fontSize=24;fontStyle=1;verticalAlign=middle;align=center;" parent="1" vertex="1">
          <mxGeometry x="-40" y="900" width="100" height="40" as="geometry" />
        </mxCell>
        <mxCell id="d8I7f4nJBKEhvR8xaNe3-43" value="S" style="text;strokeColor=none;fillColor=none;html=1;fontSize=24;fontStyle=1;verticalAlign=middle;align=center;" parent="1" vertex="1">
          <mxGeometry x="-40" y="1010" width="100" height="40" as="geometry" />
        </mxCell>
        <mxCell id="so9MObPZlSBn5EpZIMos-2" value="1) Запрс в кеш" style="text;html=1;strokeColor=none;fillColor=none;align=center;verticalAlign=middle;whiteSpace=wrap;rounded=0;" parent="1" vertex="1">
          <mxGeometry x="309.95" y="212" width="80.05" height="30" as="geometry" />
        </mxCell>
        <mxCell id="iLwR7BjCVpHOl62dJWhS-1" value="S" style="text;strokeColor=none;fillColor=none;html=1;fontSize=24;fontStyle=1;verticalAlign=middle;align=center;" vertex="1" parent="1">
          <mxGeometry x="852" y="192" width="100" height="40" as="geometry" />
        </mxCell>
        <mxCell id="iLwR7BjCVpHOl62dJWhS-2" value="S" style="text;strokeColor=none;fillColor=none;html=1;fontSize=24;fontStyle=1;verticalAlign=middle;align=center;" vertex="1" parent="1">
          <mxGeometry x="852" y="280" width="100" height="40" as="geometry" />
        </mxCell>
        <mxCell id="iLwR7BjCVpHOl62dJWhS-3" value="S" style="text;strokeColor=none;fillColor=none;html=1;fontSize=24;fontStyle=1;verticalAlign=middle;align=center;" vertex="1" parent="1">
          <mxGeometry x="862" y="354" width="100" height="40" as="geometry" />
        </mxCell>
      </root>
    </mxGraphModel>
  </diagram>
</mxfile>
